<svg width="13" height="12" viewBox="0 0 13 12" fill="none" xmlns="http://www.w3.org/2000/svg">
<path d="M10.3 10.5L7.15 7.35C6.9 7.55 6.6125 7.70833 6.2875 7.825C5.9625 7.94167 5.61667 8 5.25 8C4.34167 8 3.573 7.68533 2.944 7.056C2.315 6.42667 2.00033 5.658 2 4.75C1.99967 3.842 2.31433 3.07333 2.944 2.444C3.57367 1.81467 4.34233 1.5 5.25 1.5C6.15767 1.5 6.9265 1.81467 7.5565 2.444C8.1865 3.07333 8.501 3.842 8.5 4.75C8.5 5.11667 8.44167 5.4625 8.325 5.7875C8.20833 6.1125 8.05 6.4 7.85 6.65L11 9.8L10.3 10.5ZM5.25 7C5.875 7 6.40633 6.78133 6.844 6.344C7.28167 5.90667 7.50033 5.37533 7.5 4.75C7.49967 4.12467 7.281 3.5935 6.844 3.1565C6.407 2.7195 5.87567 2.50067 5.25 2.5C4.62433 2.49933 4.09317 2.71817 3.6565 3.1565C3.21983 3.59483 3.001 4.126 3 4.75C2.999 5.374 3.21783 5.90533 3.6565 6.344C4.09517 6.78267 4.62633 7.00133 5.25 7Z" fill="black"/>
</svg>
