<svg width="84" height="84" viewBox="0 0 84 84" fill="none" xmlns="http://www.w3.org/2000/svg">
<path d="M58.5223 0.31543C72.2993 0.315559 83.4674 11.4838 83.4677 25.2607V58.5225C83.4675 72.2995 72.2994 83.4676 58.5223 83.4678H25.2606C11.4837 83.4674 0.315446 72.2994 0.315308 58.5225V25.2607C0.315579 11.4839 11.4838 0.315777 25.2606 0.31543H58.5223ZM25.2606 8.62988C16.0762 8.63023 8.63003 16.0763 8.62976 25.2607V58.5225C8.6299 67.707 16.0762 75.153 25.2606 75.1533H58.5223C67.707 75.1532 75.1531 67.7071 75.1532 58.5225V25.2607C75.1529 16.0762 67.7069 8.63001 58.5223 8.62988H25.2606ZM41.8925 21.1045C44.1884 21.1048 46.0497 22.9657 46.0497 25.2617V37.7344H58.5233L58.7372 37.7402C60.9336 37.852 62.6805 39.6684 62.6805 41.8926C62.6802 44.1165 60.9334 45.9332 58.7372 46.0449L58.5233 46.0498H46.0497V58.5234C46.0492 60.819 44.1881 62.6804 41.8925 62.6807C39.5966 62.6807 37.7347 60.8192 37.7343 58.5234V46.0498H25.2616C22.9656 46.0498 21.1047 44.1885 21.1044 41.8926C21.1044 39.5964 22.9654 37.7344 25.2616 37.7344H37.7343V25.2617C37.7343 22.9655 39.5962 21.1045 41.8925 21.1045Z" fill="black"/>
</svg>
