<svg width="418" height="217" viewBox="0 0 418 217" fill="none" xmlns="http://www.w3.org/2000/svg">
<path d="M34.4248 187.795L21.0915 196.128L7.75814 187.795V184.462L21.0915 192.795L34.4248 184.462M34.4248 181.128H7.75814C5.90814 181.128 4.4248 182.612 4.4248 184.462V204.462C4.4248 205.346 4.77599 206.194 5.40112 206.819C6.02624 207.444 6.87408 207.795 7.75814 207.795H34.4248C35.3089 207.795 36.1567 207.444 36.7818 206.819C37.407 206.194 37.7581 205.346 37.7581 204.462V184.462C37.7581 183.578 37.407 182.73 36.7818 182.105C36.1567 181.48 35.3089 181.128 34.4248 181.128Z" fill="#954806"/>
<path d="M58.4355 212.442V194.592C58.4355 193.972 58.4155 193.342 58.3755 192.702C58.3355 192.062 58.2755 191.432 58.1955 190.812H61.8255L62.1555 193.992H61.8255C62.1255 192.932 62.7555 192.092 63.7155 191.472C64.6955 190.832 65.8255 190.512 67.1055 190.512C68.4455 190.512 69.6155 190.832 70.6155 191.472C71.6155 192.092 72.3955 192.992 72.9555 194.172C73.5155 195.332 73.7955 196.732 73.7955 198.372C73.7955 200.012 73.5155 201.422 72.9555 202.602C72.3955 203.782 71.6155 204.692 70.6155 205.332C69.6155 205.952 68.4455 206.262 67.1055 206.262C65.8455 206.262 64.7355 205.952 63.7755 205.332C62.8155 204.712 62.1755 203.882 61.8555 202.842H62.1855V212.442H58.4355ZM66.0555 203.382C67.2555 203.382 68.2155 202.972 68.9355 202.152C69.6555 201.312 70.0155 200.052 70.0155 198.372C70.0155 196.692 69.6555 195.442 68.9355 194.622C68.2155 193.802 67.2555 193.392 66.0555 193.392C64.8755 193.392 63.9255 193.802 63.2055 194.622C62.4855 195.442 62.1255 196.692 62.1255 198.372C62.1255 200.052 62.4855 201.312 63.2055 202.152C63.9255 202.972 64.8755 203.382 66.0555 203.382ZM84.359 206.262C81.819 206.262 79.829 205.562 78.389 204.162C76.949 202.762 76.229 200.842 76.229 198.402C76.229 196.822 76.539 195.442 77.159 194.262C77.779 193.082 78.639 192.162 79.739 191.502C80.859 190.842 82.159 190.512 83.639 190.512C85.099 190.512 86.319 190.822 87.299 191.442C88.279 192.062 89.019 192.932 89.519 194.052C90.039 195.172 90.299 196.482 90.299 197.982V198.972H79.259V196.992H87.629L87.119 197.412C87.119 196.012 86.819 194.942 86.219 194.202C85.639 193.462 84.789 193.092 83.669 193.092C82.429 193.092 81.469 193.532 80.789 194.412C80.129 195.292 79.799 196.522 79.799 198.102V198.492C79.799 200.132 80.199 201.362 80.999 202.182C81.819 202.982 82.969 203.382 84.449 203.382C85.309 203.382 86.109 203.272 86.849 203.052C87.609 202.812 88.329 202.432 89.009 201.912L90.119 204.432C89.399 205.012 88.539 205.462 87.539 205.782C86.539 206.102 85.479 206.262 84.359 206.262ZM99.896 206.262C98.096 206.262 96.736 205.792 95.816 204.852C94.896 203.912 94.436 202.502 94.436 200.622V193.632H91.526V190.812H94.436V186.942L98.186 185.982V190.812H102.236V193.632H98.186V200.382C98.186 201.422 98.386 202.152 98.786 202.572C99.186 202.992 99.736 203.202 100.436 203.202C100.816 203.202 101.136 203.172 101.396 203.112C101.676 203.052 101.946 202.972 102.206 202.872V205.842C101.866 205.982 101.486 206.082 101.066 206.142C100.666 206.222 100.276 206.262 99.896 206.262ZM104.783 205.962V183.882H108.533V205.962H104.783ZM112.605 205.962V190.812H116.355V205.962H112.605ZM112.395 187.962V184.302H116.565V187.962H112.395ZM120.428 205.962V194.592C120.428 193.972 120.408 193.342 120.368 192.702C120.328 192.062 120.268 191.432 120.188 190.812H123.818L124.118 193.812H123.758C124.238 192.752 124.948 191.942 125.888 191.382C126.828 190.802 127.918 190.512 129.158 190.512C130.938 190.512 132.278 191.012 133.178 192.012C134.078 193.012 134.528 194.572 134.528 196.692V205.962H130.778V196.872C130.778 195.652 130.538 194.782 130.058 194.262C129.598 193.722 128.898 193.452 127.958 193.452C126.798 193.452 125.878 193.812 125.198 194.532C124.518 195.252 124.178 196.212 124.178 197.412V205.962H120.428ZM138.504 205.962V183.882H142.254V197.262H142.314L148.464 190.812H152.994L145.344 198.822L145.374 197.322L153.534 205.962H148.884L142.314 199.182H142.254V205.962H138.504ZM161.604 206.262C160.044 206.262 158.694 205.942 157.554 205.302C156.414 204.662 155.524 203.752 154.884 202.572C154.264 201.392 153.954 199.992 153.954 198.372C153.954 196.752 154.264 195.362 154.884 194.202C155.524 193.022 156.414 192.112 157.554 191.472C158.694 190.832 160.044 190.512 161.604 190.512C163.164 190.512 164.514 190.832 165.654 191.472C166.814 192.112 167.704 193.022 168.324 194.202C168.964 195.362 169.284 196.752 169.284 198.372C169.284 199.992 168.964 201.392 168.324 202.572C167.704 203.752 166.814 204.662 165.654 205.302C164.514 205.942 163.164 206.262 161.604 206.262ZM161.604 203.382C162.784 203.382 163.724 202.972 164.424 202.152C165.124 201.312 165.474 200.052 165.474 198.372C165.474 196.692 165.124 195.442 164.424 194.622C163.724 193.802 162.784 193.392 161.604 193.392C160.424 193.392 159.484 193.802 158.784 194.622C158.084 195.442 157.734 196.692 157.734 198.372C157.734 200.052 158.084 201.312 158.784 202.152C159.484 202.972 160.424 203.382 161.604 203.382ZM173.391 205.962V193.632H170.481V190.812H174.441L173.391 191.772V189.462C173.391 187.582 173.861 186.162 174.801 185.202C175.761 184.242 177.151 183.762 178.971 183.762C179.411 183.762 179.871 183.792 180.351 183.852C180.851 183.912 181.281 184.022 181.641 184.182V187.122C181.381 187.022 181.071 186.942 180.711 186.882C180.351 186.822 180.001 186.792 179.661 186.792C178.881 186.792 178.261 187.022 177.801 187.482C177.341 187.922 177.111 188.642 177.111 189.642V191.472L176.571 190.812H187.101V205.962H183.351V193.632H177.141V205.962H173.391ZM183.141 187.962V184.302H187.311V187.962H183.141ZM198.14 206.262C196.58 206.262 195.21 205.942 194.03 205.302C192.87 204.662 191.97 203.752 191.33 202.572C190.69 201.372 190.37 199.952 190.37 198.312C190.37 196.672 190.69 195.272 191.33 194.112C191.99 192.952 192.9 192.062 194.06 191.442C195.22 190.822 196.58 190.512 198.14 190.512C199.14 190.512 200.11 190.672 201.05 190.992C202.01 191.292 202.79 191.732 203.39 192.312L202.25 194.922C201.71 194.422 201.1 194.052 200.42 193.812C199.76 193.552 199.11 193.422 198.47 193.422C197.13 193.422 196.08 193.842 195.32 194.682C194.58 195.522 194.21 196.742 194.21 198.342C194.21 199.942 194.58 201.172 195.32 202.032C196.08 202.892 197.13 203.322 198.47 203.322C199.09 203.322 199.73 203.202 200.39 202.962C201.07 202.722 201.69 202.352 202.25 201.852L203.39 204.432C202.77 205.012 201.98 205.462 201.02 205.782C200.08 206.102 199.12 206.262 198.14 206.262ZM206.297 205.962V190.812H210.047V205.962H206.297ZM206.087 187.962V184.302H210.257V187.962H206.087ZM219.969 206.262C218.649 206.262 217.489 205.952 216.489 205.332C215.489 204.692 214.709 203.782 214.149 202.602C213.589 201.422 213.309 200.012 213.309 198.372C213.309 196.732 213.589 195.332 214.149 194.172C214.709 192.992 215.489 192.092 216.489 191.472C217.489 190.832 218.649 190.512 219.969 190.512C221.249 190.512 222.369 190.832 223.329 191.472C224.309 192.092 224.959 192.932 225.279 193.992H224.949L225.279 190.812H228.879C228.819 191.432 228.759 192.062 228.699 192.702C228.659 193.342 228.639 193.972 228.639 194.592V205.962H224.919L224.889 202.842H225.249C224.929 203.882 224.279 204.712 223.299 205.332C222.319 205.952 221.209 206.262 219.969 206.262ZM221.019 203.382C222.199 203.382 223.149 202.972 223.869 202.152C224.589 201.312 224.949 200.052 224.949 198.372C224.949 196.692 224.589 195.442 223.869 194.622C223.149 193.802 222.199 193.392 221.019 193.392C219.839 193.392 218.889 193.802 218.169 194.622C217.449 195.442 217.089 196.692 217.089 198.372C217.089 200.052 217.439 201.312 218.139 202.152C218.859 202.972 219.819 203.382 221.019 203.382ZM232.723 205.962V183.882H236.473V205.962H232.723ZM253.295 210.912C251.335 210.912 249.545 210.602 247.925 209.982C246.325 209.382 244.945 208.502 243.785 207.342C242.625 206.202 241.725 204.842 241.085 203.262C240.465 201.662 240.155 199.892 240.155 197.952C240.155 195.932 240.475 194.102 241.115 192.462C241.775 190.802 242.705 189.382 243.905 188.202C245.125 187.022 246.565 186.112 248.225 185.472C249.905 184.832 251.765 184.512 253.805 184.512C256.225 184.512 258.335 184.972 260.135 185.892C261.935 186.812 263.335 188.112 264.335 189.792C265.335 191.472 265.835 193.452 265.835 195.732C265.835 197.452 265.585 198.952 265.085 200.232C264.585 201.492 263.885 202.472 262.985 203.172C262.105 203.852 261.065 204.192 259.865 204.192C258.645 204.192 257.695 203.862 257.015 203.202C256.335 202.522 255.985 201.582 255.965 200.382L256.865 200.082C256.365 201.442 255.645 202.472 254.705 203.172C253.785 203.852 252.765 204.192 251.645 204.192C250.025 204.192 248.765 203.692 247.865 202.692C246.985 201.692 246.545 200.322 246.545 198.582C246.545 197.102 246.825 195.792 247.385 194.652C247.945 193.512 248.715 192.622 249.695 191.982C250.675 191.322 251.795 190.992 253.055 190.992C254.155 190.992 255.045 191.262 255.725 191.802C256.425 192.322 256.895 193.092 257.135 194.112H256.625L257.165 191.292H259.955L258.665 198.522C258.605 198.842 258.555 199.142 258.515 199.422C258.495 199.682 258.485 199.922 258.485 200.142C258.485 200.762 258.615 201.222 258.875 201.522C259.135 201.822 259.535 201.972 260.075 201.972C260.735 201.972 261.315 201.712 261.815 201.192C262.335 200.672 262.735 199.942 263.015 199.002C263.315 198.062 263.465 196.972 263.465 195.732C263.465 193.852 263.075 192.252 262.295 190.932C261.515 189.612 260.405 188.602 258.965 187.902C257.525 187.182 255.805 186.822 253.805 186.822C251.585 186.822 249.645 187.282 247.985 188.202C246.325 189.102 245.035 190.392 244.115 192.072C243.215 193.732 242.765 195.692 242.765 197.952C242.765 200.152 243.195 202.052 244.055 203.652C244.915 205.252 246.135 206.472 247.715 207.312C249.295 208.172 251.155 208.602 253.295 208.602C254.835 208.602 256.235 208.382 257.495 207.942C258.755 207.522 259.845 206.902 260.765 206.082L261.935 208.092C260.975 208.992 259.745 209.682 258.245 210.162C256.745 210.662 255.095 210.912 253.295 210.912ZM252.185 201.822C252.965 201.822 253.655 201.592 254.255 201.132C254.875 200.672 255.355 200.032 255.695 199.212C256.035 198.372 256.205 197.412 256.205 196.332C256.205 195.352 255.985 194.622 255.545 194.142C255.125 193.642 254.465 193.392 253.565 193.392C252.785 193.392 252.085 193.612 251.465 194.052C250.845 194.472 250.355 195.072 249.995 195.852C249.655 196.632 249.485 197.532 249.485 198.552C249.485 199.612 249.715 200.422 250.175 200.982C250.655 201.542 251.325 201.822 252.185 201.822ZM276.51 212.682C275.11 212.682 273.84 212.532 272.7 212.232C271.58 211.932 270.58 211.472 269.7 210.852L270.51 208.152C271.09 208.532 271.69 208.842 272.31 209.082C272.93 209.322 273.57 209.502 274.23 209.622C274.89 209.742 275.56 209.802 276.24 209.802C277.64 209.802 278.68 209.452 279.36 208.752C280.06 208.072 280.41 207.092 280.41 205.812V202.182H280.71C280.39 203.222 279.74 204.052 278.76 204.672C277.8 205.292 276.69 205.602 275.43 205.602C274.07 205.602 272.88 205.302 271.86 204.702C270.86 204.082 270.08 203.202 269.52 202.062C268.96 200.922 268.68 199.582 268.68 198.042C268.68 196.502 268.96 195.172 269.52 194.052C270.08 192.912 270.86 192.042 271.86 191.442C272.88 190.822 274.07 190.512 275.43 190.512C276.71 190.512 277.82 190.822 278.76 191.442C279.72 192.042 280.36 192.862 280.68 193.902L280.41 193.722L280.71 190.812H284.34C284.26 191.432 284.2 192.062 284.16 192.702C284.12 193.342 284.1 193.972 284.1 194.592V205.362C284.1 207.742 283.45 209.552 282.15 210.792C280.87 212.052 278.99 212.682 276.51 212.682ZM276.45 202.722C277.65 202.722 278.6 202.322 279.3 201.522C280.02 200.702 280.38 199.542 280.38 198.042C280.38 196.542 280.02 195.392 279.3 194.592C278.6 193.792 277.65 193.392 276.45 193.392C275.23 193.392 274.26 193.792 273.54 194.592C272.82 195.392 272.46 196.542 272.46 198.042C272.46 199.542 272.82 200.702 273.54 201.522C274.26 202.322 275.23 202.722 276.45 202.722ZM288.152 205.962V194.592C288.152 193.972 288.132 193.342 288.092 192.702C288.052 192.062 287.992 191.432 287.912 190.812H291.542L291.842 193.812H291.482C291.902 192.772 292.542 191.962 293.402 191.382C294.282 190.802 295.322 190.512 296.522 190.512C297.722 190.512 298.712 190.802 299.492 191.382C300.292 191.942 300.852 192.822 301.172 194.022H300.692C301.112 192.942 301.802 192.092 302.762 191.472C303.722 190.832 304.822 190.512 306.062 190.512C307.762 190.512 309.032 191.012 309.872 192.012C310.712 193.012 311.132 194.572 311.132 196.692V205.962H307.382V196.842C307.382 195.642 307.182 194.782 306.782 194.262C306.382 193.722 305.742 193.452 304.862 193.452C303.822 193.452 303.002 193.822 302.402 194.562C301.802 195.282 301.502 196.262 301.502 197.502V205.962H297.752V196.842C297.752 195.642 297.552 194.782 297.152 194.262C296.752 193.722 296.112 193.452 295.232 193.452C294.192 193.452 293.372 193.822 292.772 194.562C292.192 195.282 291.902 196.262 291.902 197.502V205.962H288.152ZM320.985 206.262C319.665 206.262 318.505 205.952 317.505 205.332C316.505 204.692 315.725 203.782 315.165 202.602C314.605 201.422 314.325 200.012 314.325 198.372C314.325 196.732 314.605 195.332 315.165 194.172C315.725 192.992 316.505 192.092 317.505 191.472C318.505 190.832 319.665 190.512 320.985 190.512C322.265 190.512 323.385 190.832 324.345 191.472C325.325 192.092 325.975 192.932 326.295 193.992H325.965L326.295 190.812H329.895C329.835 191.432 329.775 192.062 329.715 192.702C329.675 193.342 329.655 193.972 329.655 194.592V205.962H325.935L325.905 202.842H326.265C325.945 203.882 325.295 204.712 324.315 205.332C323.335 205.952 322.225 206.262 320.985 206.262ZM322.035 203.382C323.215 203.382 324.165 202.972 324.885 202.152C325.605 201.312 325.965 200.052 325.965 198.372C325.965 196.692 325.605 195.442 324.885 194.622C324.165 193.802 323.215 193.392 322.035 193.392C320.855 193.392 319.905 193.802 319.185 194.622C318.465 195.442 318.105 196.692 318.105 198.372C318.105 200.052 318.455 201.312 319.155 202.152C319.875 202.972 320.835 203.382 322.035 203.382ZM333.738 205.962V190.812H337.488V205.962H333.738ZM333.528 187.962V184.302H337.698V187.962H333.528ZM341.561 205.962V183.882H345.311V205.962H341.561ZM348.963 205.962V201.792H353.163V205.962H348.963ZM363.228 206.262C361.668 206.262 360.298 205.942 359.118 205.302C357.958 204.662 357.058 203.752 356.418 202.572C355.778 201.372 355.458 199.952 355.458 198.312C355.458 196.672 355.778 195.272 356.418 194.112C357.078 192.952 357.988 192.062 359.148 191.442C360.308 190.822 361.668 190.512 363.228 190.512C364.228 190.512 365.198 190.672 366.138 190.992C367.098 191.292 367.878 191.732 368.478 192.312L367.338 194.922C366.798 194.422 366.188 194.052 365.508 193.812C364.848 193.552 364.198 193.422 363.558 193.422C362.218 193.422 361.168 193.842 360.408 194.682C359.668 195.522 359.298 196.742 359.298 198.342C359.298 199.942 359.668 201.172 360.408 202.032C361.168 202.892 362.218 203.322 363.558 203.322C364.178 203.322 364.818 203.202 365.478 202.962C366.158 202.722 366.778 202.352 367.338 201.852L368.478 204.432C367.858 205.012 367.068 205.462 366.108 205.782C365.168 206.102 364.208 206.262 363.228 206.262ZM377.932 206.262C376.372 206.262 375.022 205.942 373.882 205.302C372.742 204.662 371.852 203.752 371.212 202.572C370.592 201.392 370.282 199.992 370.282 198.372C370.282 196.752 370.592 195.362 371.212 194.202C371.852 193.022 372.742 192.112 373.882 191.472C375.022 190.832 376.372 190.512 377.932 190.512C379.492 190.512 380.842 190.832 381.982 191.472C383.142 192.112 384.032 193.022 384.652 194.202C385.292 195.362 385.612 196.752 385.612 198.372C385.612 199.992 385.292 201.392 384.652 202.572C384.032 203.752 383.142 204.662 381.982 205.302C380.842 205.942 379.492 206.262 377.932 206.262ZM377.932 203.382C379.112 203.382 380.052 202.972 380.752 202.152C381.452 201.312 381.802 200.052 381.802 198.372C381.802 196.692 381.452 195.442 380.752 194.622C380.052 193.802 379.112 193.392 377.932 193.392C376.752 193.392 375.812 193.802 375.112 194.622C374.412 195.442 374.062 196.692 374.062 198.372C374.062 200.052 374.412 201.312 375.112 202.152C375.812 202.972 376.752 203.382 377.932 203.382ZM388.846 205.962V194.592C388.846 193.972 388.826 193.342 388.786 192.702C388.746 192.062 388.686 191.432 388.606 190.812H392.236L392.536 193.812H392.176C392.596 192.772 393.236 191.962 394.096 191.382C394.976 190.802 396.016 190.512 397.216 190.512C398.416 190.512 399.406 190.802 400.186 191.382C400.986 191.942 401.546 192.822 401.866 194.022H401.386C401.806 192.942 402.496 192.092 403.456 191.472C404.416 190.832 405.516 190.512 406.756 190.512C408.456 190.512 409.726 191.012 410.566 192.012C411.406 193.012 411.826 194.572 411.826 196.692V205.962H408.076V196.842C408.076 195.642 407.876 194.782 407.476 194.262C407.076 193.722 406.436 193.452 405.556 193.452C404.516 193.452 403.696 193.822 403.096 194.562C402.496 195.282 402.196 196.262 402.196 197.502V205.962H398.446V196.842C398.446 195.642 398.246 194.782 397.846 194.262C397.446 193.722 396.806 193.452 395.926 193.452C394.886 193.452 394.066 193.822 393.466 194.562C392.886 195.282 392.596 196.262 392.596 197.502V205.962H388.846Z" fill="#954806"/>
<path d="M20.65 120.683C11.4545 120.683 4 128.137 4 137.333C4 146.528 11.4545 153.983 20.65 153.983C29.8455 153.983 37.3 146.528 37.3 137.333C37.3 128.137 29.8455 120.683 20.65 120.683ZM14.6664 127.296C15.0095 127.276 15.3195 127.481 15.5546 127.845L17.831 132.162C18.0706 132.674 17.9344 133.221 17.5769 133.587L16.5343 134.629C16.4699 134.718 16.4276 134.817 16.4265 134.926C16.8264 136.474 18.0393 137.902 19.1094 138.883C20.1795 139.865 21.3297 141.194 22.8227 141.509C23.0073 141.561 23.2333 141.579 23.3654 141.457L24.5767 140.223C24.9949 139.906 25.5998 139.752 26.0462 140.011H26.0665L30.1741 142.436C30.7771 142.814 30.8395 143.545 30.4078 143.989L27.5787 146.796C27.1609 147.224 26.6058 147.368 26.0666 147.369C23.6815 147.298 21.4279 146.127 19.5769 144.924C16.5386 142.714 13.7515 139.972 12.0019 136.66C11.3308 135.271 10.5425 133.499 10.6177 131.949C10.6245 131.365 10.7822 130.794 11.1929 130.418L14.0221 127.589C14.2425 127.401 14.4606 127.308 14.6664 127.296Z" fill="#954806"/>
<path d="M62.8143 148.983C61.6743 148.983 60.5443 148.773 59.4243 148.353C58.3043 147.913 57.3443 147.323 56.5443 146.583L57.8343 143.703C58.5743 144.383 59.3743 144.893 60.2343 145.233C61.0943 145.573 61.9643 145.743 62.8443 145.743C64.6243 145.743 65.9843 145.133 66.9243 143.913C67.8843 142.693 68.3643 140.873 68.3643 138.453V136.203H68.7243C68.5843 137.203 68.2443 138.073 67.7043 138.813C67.1643 139.553 66.4843 140.123 65.6643 140.523C64.8643 140.903 63.9643 141.093 62.9643 141.093C61.7443 141.093 60.6443 140.803 59.6643 140.223C58.7043 139.643 57.9443 138.843 57.3843 137.823C56.8443 136.783 56.5743 135.613 56.5743 134.313C56.5743 132.933 56.8743 131.713 57.4743 130.653C58.0943 129.593 58.9343 128.763 59.9943 128.163C61.0543 127.543 62.2743 127.233 63.6543 127.233C66.3343 127.233 68.3943 128.153 69.8343 129.993C71.2943 131.813 72.0243 134.393 72.0243 137.733C72.0243 140.113 71.6543 142.143 70.9143 143.823C70.1943 145.503 69.1443 146.783 67.7643 147.663C66.3843 148.543 64.7343 148.983 62.8143 148.983ZM63.8943 138.033C64.6343 138.033 65.2843 137.873 65.8443 137.553C66.4043 137.233 66.8443 136.783 67.1643 136.203C67.4843 135.603 67.6443 134.923 67.6443 134.163C67.6443 133.383 67.4843 132.703 67.1643 132.123C66.8443 131.543 66.4043 131.093 65.8443 130.773C65.2843 130.433 64.6343 130.263 63.8943 130.263C63.1543 130.263 62.5043 130.433 61.9443 130.773C61.3843 131.093 60.9443 131.543 60.6243 132.123C60.3243 132.703 60.1743 133.383 60.1743 134.163C60.1743 134.923 60.3243 135.603 60.6243 136.203C60.9443 136.783 61.3843 137.233 61.9443 137.553C62.5043 137.873 63.1543 138.033 63.8943 138.033ZM83.1426 148.983C80.4826 148.983 78.4226 148.063 76.9626 146.223C75.5226 144.383 74.8026 141.803 74.8026 138.483C74.8026 136.083 75.1726 134.053 75.9126 132.393C76.6526 130.713 77.7026 129.433 79.0626 128.553C80.4426 127.673 82.0926 127.233 84.0126 127.233C85.1526 127.233 86.2826 127.443 87.4026 127.863C88.5226 128.263 89.4826 128.843 90.2826 129.603L88.9926 132.483C88.2526 131.803 87.4526 131.303 86.5926 130.983C85.7326 130.643 84.8626 130.473 83.9826 130.473C82.1826 130.473 80.8126 131.083 79.8726 132.303C78.9326 133.523 78.4626 135.343 78.4626 137.763V140.013H78.1026C78.2626 138.993 78.6026 138.123 79.1226 137.403C79.6426 136.663 80.3126 136.103 81.1326 135.723C81.9526 135.323 82.8626 135.123 83.8626 135.123C85.1026 135.123 86.2026 135.413 87.1626 135.993C88.1226 136.573 88.8726 137.373 89.4126 138.393C89.9726 139.413 90.2526 140.583 90.2526 141.903C90.2526 143.263 89.9426 144.483 89.3226 145.563C88.7226 146.623 87.8926 147.463 86.8326 148.083C85.7726 148.683 84.5426 148.983 83.1426 148.983ZM82.9326 145.923C83.6726 145.923 84.3226 145.763 84.8826 145.443C85.4426 145.123 85.8726 144.673 86.1726 144.093C86.4926 143.493 86.6526 142.813 86.6526 142.053C86.6526 141.273 86.4926 140.593 86.1726 140.013C85.8726 139.433 85.4426 138.983 84.8826 138.663C84.3226 138.323 83.6726 138.153 82.9326 138.153C82.1926 138.153 81.5426 138.323 80.9826 138.663C80.4226 138.983 79.9826 139.433 79.6626 140.013C79.3426 140.593 79.1826 141.273 79.1826 142.053C79.1826 142.813 79.3426 143.493 79.6626 144.093C79.9826 144.673 80.4226 145.123 80.9826 145.443C81.5426 145.763 82.1926 145.923 82.9326 145.923ZM94.7109 148.683V145.473H99.5709V130.773H101.431L95.1909 134.493V130.833L100.681 127.533H103.441V145.473H108.001V148.683H94.7109ZM111.379 141.903V138.933H120.499V141.903H111.379ZM124.863 148.683V145.833L131.883 138.513C132.763 137.593 133.413 136.743 133.833 135.963C134.253 135.183 134.463 134.383 134.463 133.563C134.463 132.543 134.143 131.773 133.503 131.253C132.863 130.733 131.933 130.473 130.713 130.473C129.733 130.473 128.793 130.653 127.893 131.013C126.993 131.353 126.113 131.893 125.253 132.633L123.993 129.753C124.853 128.993 125.913 128.383 127.173 127.923C128.453 127.463 129.793 127.233 131.193 127.233C133.473 127.233 135.223 127.743 136.443 128.763C137.663 129.783 138.273 131.243 138.273 133.143C138.273 134.463 137.963 135.723 137.343 136.923C136.723 138.103 135.763 139.343 134.463 140.643L128.613 146.493V145.473H139.113V148.683H124.863ZM151.192 148.683V144.543H141.742V141.843L151.792 127.533H154.912V141.603H157.942V144.543H154.912V148.683H151.192ZM151.192 141.603V132.093H151.912L144.622 142.503V141.603H151.192ZM160.84 148.683V145.833L167.86 138.513C168.74 137.593 169.39 136.743 169.81 135.963C170.23 135.183 170.44 134.383 170.44 133.563C170.44 132.543 170.12 131.773 169.48 131.253C168.84 130.733 167.91 130.473 166.69 130.473C165.71 130.473 164.77 130.653 163.87 131.013C162.97 131.353 162.09 131.893 161.23 132.633L159.97 129.753C160.83 128.993 161.89 128.383 163.15 127.923C164.43 127.463 165.77 127.233 167.17 127.233C169.45 127.233 171.2 127.743 172.42 128.763C173.64 129.783 174.25 131.243 174.25 133.143C174.25 134.463 173.94 135.723 173.32 136.923C172.7 138.103 171.74 139.343 170.44 140.643L164.59 146.493V145.473H175.09V148.683H160.84ZM178.498 141.903V138.933H187.618V141.903H178.498ZM198.643 148.983C196.163 148.983 194.223 148.453 192.823 147.393C191.443 146.333 190.753 144.863 190.753 142.983C190.753 141.503 191.203 140.273 192.103 139.293C193.003 138.313 194.173 137.733 195.613 137.553V138.183C194.313 137.903 193.263 137.293 192.463 136.353C191.683 135.413 191.293 134.273 191.293 132.933C191.293 131.153 191.943 129.763 193.243 128.763C194.563 127.743 196.363 127.233 198.643 127.233C200.943 127.233 202.743 127.743 204.043 128.763C205.363 129.763 206.023 131.153 206.023 132.933C206.023 134.273 205.643 135.423 204.883 136.383C204.143 137.343 203.133 137.933 201.853 138.153V137.553C203.273 137.753 204.413 138.343 205.273 139.323C206.133 140.283 206.563 141.503 206.563 142.983C206.563 144.863 205.863 146.333 204.463 147.393C203.083 148.453 201.143 148.983 198.643 148.983ZM198.643 145.983C200.103 145.983 201.193 145.713 201.913 145.173C202.633 144.613 202.993 143.793 202.993 142.713C202.993 141.633 202.633 140.823 201.913 140.283C201.193 139.743 200.103 139.473 198.643 139.473C197.203 139.473 196.113 139.743 195.373 140.283C194.653 140.823 194.293 141.633 194.293 142.713C194.293 143.793 194.653 144.613 195.373 145.173C196.113 145.713 197.203 145.983 198.643 145.983ZM198.643 136.473C199.883 136.473 200.823 136.193 201.463 135.633C202.123 135.073 202.453 134.303 202.453 133.323C202.453 132.363 202.123 131.613 201.463 131.073C200.823 130.513 199.883 130.233 198.643 130.233C197.423 130.233 196.483 130.513 195.823 131.073C195.183 131.613 194.863 132.363 194.863 133.323C194.863 134.303 195.183 135.073 195.823 135.633C196.483 136.193 197.423 136.473 198.643 136.473ZM209.971 148.683V145.833L216.991 138.513C217.871 137.593 218.521 136.743 218.941 135.963C219.361 135.183 219.571 134.383 219.571 133.563C219.571 132.543 219.251 131.773 218.611 131.253C217.971 130.733 217.041 130.473 215.821 130.473C214.841 130.473 213.901 130.653 213.001 131.013C212.101 131.353 211.221 131.893 210.361 132.633L209.101 129.753C209.961 128.993 211.021 128.383 212.281 127.923C213.561 127.463 214.901 127.233 216.301 127.233C218.581 127.233 220.331 127.743 221.551 128.763C222.771 129.783 223.381 131.243 223.381 133.143C223.381 134.463 223.071 135.723 222.451 136.923C221.831 138.103 220.871 139.343 219.571 140.643L213.721 146.493V145.473H224.221V148.683H209.971ZM228.199 148.683L238.459 129.423V130.773H227.239V127.533H242.029V130.413L232.429 148.683H228.199ZM252.607 148.983C250.127 148.983 248.217 148.043 246.877 146.163C245.537 144.263 244.867 141.563 244.867 138.063C244.867 134.523 245.537 131.833 246.877 129.993C248.217 128.153 250.127 127.233 252.607 127.233C255.107 127.233 257.017 128.153 258.337 129.993C259.677 131.833 260.347 134.513 260.347 138.033C260.347 141.553 259.677 144.263 258.337 146.163C257.017 148.043 255.107 148.983 252.607 148.983ZM252.607 145.803C253.967 145.803 254.977 145.183 255.637 143.943C256.297 142.683 256.627 140.713 256.627 138.033C256.627 135.353 256.297 133.413 255.637 132.213C254.977 130.993 253.967 130.383 252.607 130.383C251.267 130.383 250.257 130.993 249.577 132.213C248.917 133.413 248.587 135.353 248.587 138.033C248.587 140.713 248.917 142.683 249.577 143.943C250.257 145.183 251.267 145.803 252.607 145.803Z" fill="#954806"/>
<path d="M23.7752 80.3083C23.7652 80.8363 23.5986 81.3494 23.2966 81.7826C22.9946 82.2158 22.5707 82.5495 22.0788 82.7416C21.5869 82.9336 21.0491 82.9753 20.5334 82.8613C20.0178 82.7473 19.5476 82.4828 19.1825 82.1013C18.8174 81.7198 18.5738 81.2385 18.4825 80.7183C18.3912 80.1982 18.4565 79.6627 18.6699 79.1797C18.8833 78.6967 19.2354 78.2879 19.6814 78.0052C20.1274 77.7225 20.6473 77.5785 21.1752 77.5916C21.8767 77.6176 22.5405 77.9158 23.0259 78.4229C23.5113 78.9301 23.78 79.6063 23.7752 80.3083Z" fill="#954806"/>
<path d="M25.6972 71.9583H16.6556C15.7609 71.9583 14.9029 72.3137 14.2703 72.9463C13.6376 73.5789 13.2822 74.4369 13.2822 75.3316V84.5766C13.2822 85.0196 13.3695 85.4582 13.539 85.8675C13.7085 86.2768 13.957 86.6486 14.2703 86.9619C14.5835 87.2751 14.9554 87.5236 15.3646 87.6931C15.7739 87.8627 16.2126 87.9499 16.6556 87.9499H25.6972C26.1402 87.9499 26.5789 87.8627 26.9881 87.6931C27.3974 87.5236 27.7693 87.2751 28.0825 86.9619C28.3958 86.6486 28.6443 86.2768 28.8138 85.8675C28.9833 85.4582 29.0706 85.0196 29.0706 84.5766V75.3483C29.0723 74.904 28.9864 74.4637 28.8177 74.0527C28.649 73.6417 28.4008 73.2681 28.0875 72.9531C27.7741 72.6382 27.4016 72.3882 26.9915 72.2175C26.5813 72.0468 26.1415 71.9587 25.6972 71.9583ZM21.1756 84.8299C20.2805 84.8501 19.3997 84.6032 18.6456 84.1206C17.8915 83.638 17.2983 82.9417 16.9417 82.1205C16.5851 81.2993 16.4812 80.3905 16.6434 79.51C16.8056 78.6295 17.2264 77.8174 17.8522 77.1771C18.478 76.5369 19.2804 76.0976 20.1569 75.9154C21.0335 75.7331 21.9445 75.8162 22.7736 76.154C23.6027 76.4918 24.3124 77.0689 24.812 77.8118C25.3117 78.5547 25.5787 79.4296 25.5789 80.3249C25.5862 80.91 25.478 81.4908 25.2605 82.034C25.043 82.5772 24.7206 83.0722 24.3116 83.4907C23.9026 83.9091 23.415 84.2428 22.8769 84.4726C22.3388 84.7024 21.7607 84.8238 21.1756 84.8299ZM26.0689 75.8216C25.9589 75.8216 25.85 75.7997 25.7486 75.7571C25.6472 75.7145 25.5554 75.6521 25.4784 75.5736C25.4014 75.4951 25.3409 75.402 25.3003 75.2997C25.2598 75.1975 25.24 75.0882 25.2422 74.9783C25.2422 74.7546 25.3311 74.5401 25.4892 74.3819C25.6474 74.2238 25.8619 74.1349 26.0856 74.1349C26.3092 74.1349 26.5237 74.2238 26.6819 74.3819C26.84 74.5401 26.9289 74.7546 26.9289 74.9783C26.9322 75.0973 26.9097 75.2157 26.8631 75.3253C26.8164 75.4348 26.7466 75.533 26.6584 75.6131C26.5702 75.6932 26.4658 75.7533 26.3523 75.7893C26.2387 75.8253 26.1188 75.8363 26.0006 75.8216H26.0689Z" fill="#954806"/>
<path d="M21.175 63.2365C16.7547 63.2144 12.5067 64.9492 9.36549 68.0592C6.22426 71.1691 4.44711 75.3996 4.42501 79.8199C4.40291 84.2401 6.13766 88.4882 9.24764 91.6294C12.3576 94.7706 16.5881 96.5478 21.0083 96.5699C23.197 96.5808 25.3665 96.1606 27.3927 95.3331C29.419 94.5056 31.2625 93.2871 32.8179 91.7472C34.3733 90.2073 35.6101 88.3762 36.4578 86.3583C37.3055 84.3403 37.7474 82.1752 37.7584 79.9865C37.7693 77.7978 37.349 75.6284 36.5216 73.6021C35.6941 71.5759 34.4756 69.7324 32.9357 68.177C31.3958 66.6216 29.5646 65.3848 27.5467 64.5371C25.5288 63.6894 23.3637 63.2475 21.175 63.2365ZM31.2967 84.4065C31.3013 85.1543 31.1575 85.8955 30.8736 86.5872C30.5896 87.2789 30.1712 87.9074 29.6425 88.4362C29.1139 88.965 28.4855 89.3836 27.7939 89.6678C27.1022 89.9519 26.3611 90.096 25.6133 90.0915H16.74C15.9923 90.0962 15.2511 89.9524 14.5594 89.6684C13.8676 89.3845 13.2392 88.966 12.7103 88.4374C12.1815 87.9087 11.7629 87.2804 11.4788 86.5887C11.1946 85.8971 11.0506 85.1559 11.055 84.4082V75.5332C11.0504 74.7855 11.1942 74.0443 11.4781 73.3526C11.7621 72.6608 12.1805 72.0323 12.7092 71.5035C13.2378 70.9747 13.8662 70.5561 14.5578 70.272C15.2495 69.9878 15.9906 69.8438 16.7383 69.8482H25.6133C26.3609 69.8438 27.102 69.9878 27.7935 70.2718C28.485 70.5559 29.1133 70.9743 29.6419 71.503C30.1706 72.0316 30.589 72.6599 30.8731 73.3514C31.1571 74.0429 31.3011 74.784 31.2967 75.5315V84.4065Z" fill="#954806"/>
<path d="M58.5771 97.8833V80.0333C58.5771 79.4133 58.5571 78.7833 58.5171 78.1433C58.4771 77.5033 58.4171 76.8733 58.3371 76.2533H61.9671L62.2971 79.4333H61.9671C62.2671 78.3733 62.8971 77.5333 63.8571 76.9133C64.8371 76.2733 65.9671 75.9533 67.2471 75.9533C68.5871 75.9533 69.7571 76.2733 70.7571 76.9133C71.7571 77.5333 72.5371 78.4333 73.0971 79.6133C73.6571 80.7733 73.9371 82.1733 73.9371 83.8133C73.9371 85.4533 73.6571 86.8633 73.0971 88.0433C72.5371 89.2233 71.7571 90.1333 70.7571 90.7733C69.7571 91.3933 68.5871 91.7033 67.2471 91.7033C65.9871 91.7033 64.8771 91.3933 63.9171 90.7733C62.9571 90.1533 62.3171 89.3233 61.9971 88.2833H62.3271V97.8833H58.5771ZM66.1971 88.8233C67.3971 88.8233 68.3571 88.4133 69.0771 87.5933C69.7971 86.7533 70.1571 85.4933 70.1571 83.8133C70.1571 82.1333 69.7971 80.8833 69.0771 80.0633C68.3571 79.2433 67.3971 78.8333 66.1971 78.8333C65.0171 78.8333 64.0671 79.2433 63.3471 80.0633C62.6271 80.8833 62.2671 82.1333 62.2671 83.8133C62.2671 85.4933 62.6271 86.7533 63.3471 87.5933C64.0671 88.4133 65.0171 88.8233 66.1971 88.8233ZM84.5006 91.7033C81.9606 91.7033 79.9706 91.0033 78.5306 89.6033C77.0906 88.2033 76.3706 86.2833 76.3706 83.8433C76.3706 82.2633 76.6806 80.8833 77.3006 79.7033C77.9206 78.5233 78.7806 77.6033 79.8806 76.9433C81.0006 76.2833 82.3006 75.9533 83.7806 75.9533C85.2406 75.9533 86.4606 76.2633 87.4406 76.8833C88.4206 77.5033 89.1606 78.3733 89.6606 79.4933C90.1806 80.6133 90.4406 81.9233 90.4406 83.4233V84.4133H79.4006V82.4333H87.7706L87.2606 82.8533C87.2606 81.4533 86.9606 80.3833 86.3606 79.6433C85.7806 78.9033 84.9306 78.5333 83.8106 78.5333C82.5706 78.5333 81.6106 78.9733 80.9306 79.8533C80.2706 80.7333 79.9406 81.9633 79.9406 83.5433V83.9333C79.9406 85.5733 80.3406 86.8033 81.1406 87.6233C81.9606 88.4233 83.1106 88.8233 84.5906 88.8233C85.4506 88.8233 86.2506 88.7133 86.9906 88.4933C87.7506 88.2533 88.4706 87.8733 89.1506 87.3533L90.2606 89.8733C89.5406 90.4533 88.6806 90.9033 87.6806 91.2233C86.6806 91.5433 85.6206 91.7033 84.5006 91.7033ZM100.038 91.7033C98.2376 91.7033 96.8776 91.2333 95.9576 90.2933C95.0376 89.3533 94.5776 87.9433 94.5776 86.0633V79.0733H91.6676V76.2533H94.5776V72.3833L98.3276 71.4233V76.2533H102.378V79.0733H98.3276V85.8233C98.3276 86.8633 98.5276 87.5933 98.9276 88.0133C99.3276 88.4333 99.8776 88.6433 100.578 88.6433C100.958 88.6433 101.278 88.6133 101.538 88.5533C101.818 88.4933 102.088 88.4133 102.348 88.3133V91.2833C102.008 91.4233 101.628 91.5233 101.208 91.5833C100.808 91.6633 100.418 91.7033 100.038 91.7033ZM104.925 91.4033V69.3233H108.675V91.4033H104.925ZM112.747 91.4033V76.2533H116.497V91.4033H112.747ZM112.537 73.4033V69.7433H116.707V73.4033H112.537ZM120.569 91.4033V80.0333C120.569 79.4133 120.549 78.7833 120.509 78.1433C120.469 77.5033 120.409 76.8733 120.329 76.2533H123.959L124.259 79.2533H123.899C124.379 78.1933 125.089 77.3833 126.029 76.8233C126.969 76.2433 128.059 75.9533 129.299 75.9533C131.079 75.9533 132.419 76.4533 133.319 77.4533C134.219 78.4533 134.669 80.0133 134.669 82.1333V91.4033H130.919V82.3133C130.919 81.0933 130.679 80.2233 130.199 79.7033C129.739 79.1633 129.039 78.8933 128.099 78.8933C126.939 78.8933 126.019 79.2533 125.339 79.9733C124.659 80.6933 124.319 81.6533 124.319 82.8533V91.4033H120.569ZM138.645 91.4033V69.3233H142.395V82.7033H142.455L148.605 76.2533H153.135L145.485 84.2633L145.515 82.7633L153.675 91.4033H149.025L142.455 84.6233H142.395V91.4033H138.645ZM161.745 91.7033C160.185 91.7033 158.835 91.3833 157.695 90.7433C156.555 90.1033 155.665 89.1933 155.025 88.0133C154.405 86.8333 154.095 85.4333 154.095 83.8133C154.095 82.1933 154.405 80.8033 155.025 79.6433C155.665 78.4633 156.555 77.5533 157.695 76.9133C158.835 76.2733 160.185 75.9533 161.745 75.9533C163.305 75.9533 164.655 76.2733 165.795 76.9133C166.955 77.5533 167.845 78.4633 168.465 79.6433C169.105 80.8033 169.425 82.1933 169.425 83.8133C169.425 85.4333 169.105 86.8333 168.465 88.0133C167.845 89.1933 166.955 90.1033 165.795 90.7433C164.655 91.3833 163.305 91.7033 161.745 91.7033ZM161.745 88.8233C162.925 88.8233 163.865 88.4133 164.565 87.5933C165.265 86.7533 165.615 85.4933 165.615 83.8133C165.615 82.1333 165.265 80.8833 164.565 80.0633C163.865 79.2433 162.925 78.8333 161.745 78.8333C160.565 78.8333 159.625 79.2433 158.925 80.0633C158.225 80.8833 157.875 82.1333 157.875 83.8133C157.875 85.4933 158.225 86.7533 158.925 87.5933C159.625 88.4133 160.565 88.8233 161.745 88.8233ZM173.533 91.4033V79.0733H170.623V76.2533H174.583L173.533 77.2133V74.9033C173.533 73.0233 174.003 71.6033 174.943 70.6433C175.903 69.6833 177.293 69.2033 179.113 69.2033C179.553 69.2033 180.013 69.2333 180.493 69.2933C180.993 69.3533 181.423 69.4633 181.783 69.6233V72.5633C181.523 72.4633 181.213 72.3833 180.853 72.3233C180.493 72.2633 180.143 72.2333 179.803 72.2333C179.023 72.2333 178.403 72.4633 177.943 72.9233C177.483 73.3633 177.253 74.0833 177.253 75.0833V76.9133L176.713 76.2533H187.243V91.4033H183.493V79.0733H177.283V91.4033H173.533ZM183.283 73.4033V69.7433H187.453V73.4033H183.283ZM198.281 91.7033C196.721 91.7033 195.351 91.3833 194.171 90.7433C193.011 90.1033 192.111 89.1933 191.471 88.0133C190.831 86.8133 190.511 85.3933 190.511 83.7533C190.511 82.1133 190.831 80.7133 191.471 79.5533C192.131 78.3933 193.041 77.5033 194.201 76.8833C195.361 76.2633 196.721 75.9533 198.281 75.9533C199.281 75.9533 200.251 76.1133 201.191 76.4333C202.151 76.7333 202.931 77.1733 203.531 77.7533L202.391 80.3633C201.851 79.8633 201.241 79.4933 200.561 79.2533C199.901 78.9933 199.251 78.8633 198.611 78.8633C197.271 78.8633 196.221 79.2833 195.461 80.1233C194.721 80.9633 194.351 82.1833 194.351 83.7833C194.351 85.3833 194.721 86.6133 195.461 87.4733C196.221 88.3333 197.271 88.7633 198.611 88.7633C199.231 88.7633 199.871 88.6433 200.531 88.4033C201.211 88.1633 201.831 87.7933 202.391 87.2933L203.531 89.8733C202.911 90.4533 202.121 90.9033 201.161 91.2233C200.221 91.5433 199.261 91.7033 198.281 91.7033ZM206.438 91.4033V76.2533H210.188V91.4033H206.438ZM206.228 73.4033V69.7433H210.398V73.4033H206.228ZM220.111 91.7033C218.791 91.7033 217.631 91.3933 216.631 90.7733C215.631 90.1333 214.851 89.2233 214.291 88.0433C213.731 86.8633 213.451 85.4533 213.451 83.8133C213.451 82.1733 213.731 80.7733 214.291 79.6133C214.851 78.4333 215.631 77.5333 216.631 76.9133C217.631 76.2733 218.791 75.9533 220.111 75.9533C221.391 75.9533 222.511 76.2733 223.471 76.9133C224.451 77.5333 225.101 78.3733 225.421 79.4333H225.091L225.421 76.2533H229.021C228.961 76.8733 228.901 77.5033 228.841 78.1433C228.801 78.7833 228.781 79.4133 228.781 80.0333V91.4033H225.061L225.031 88.2833H225.391C225.071 89.3233 224.421 90.1533 223.441 90.7733C222.461 91.3933 221.351 91.7033 220.111 91.7033ZM221.161 88.8233C222.341 88.8233 223.291 88.4133 224.011 87.5933C224.731 86.7533 225.091 85.4933 225.091 83.8133C225.091 82.1333 224.731 80.8833 224.011 80.0633C223.291 79.2433 222.341 78.8333 221.161 78.8333C219.981 78.8333 219.031 79.2433 218.311 80.0633C217.591 80.8833 217.231 82.1333 217.231 83.8133C217.231 85.4933 217.581 86.7533 218.281 87.5933C219.001 88.4133 219.961 88.8233 221.161 88.8233ZM232.864 91.4033V69.3233H236.614V91.4033H232.864Z" fill="#954806"/>
<path d="M21.568 6.43359C12.4014 6.43359 4.90137 13.947 4.90137 23.2007C4.90137 31.5675 11.0014 38.5119 18.968 39.7669V28.0534H14.7347V23.2007H18.968V19.5025C18.968 15.3024 21.4513 12.9932 25.268 12.9932C27.0847 12.9932 28.9847 13.3111 28.9847 13.3111V17.4443H26.8847C24.818 17.4443 24.168 18.7328 24.168 20.0547V23.2007H28.8013L28.0513 28.0534H24.168V39.7669C28.0954 39.1442 31.6717 37.1322 34.2512 34.0943C36.8307 31.0564 38.2436 27.1927 38.2347 23.2007C38.2347 13.947 30.7347 6.43359 21.568 6.43359Z" fill="#954806"/>
<path d="M58.8166 34.124V12.974H68.2066C70.5266 12.974 72.2966 13.534 73.5166 14.654C74.7366 15.774 75.3466 17.314 75.3466 19.274C75.3466 21.214 74.7366 22.754 73.5166 23.894C72.2966 25.034 70.5266 25.604 68.2066 25.604H62.6866V34.124H58.8166ZM62.6866 22.544H67.7566C69.0366 22.544 69.9966 22.264 70.6366 21.704C71.2766 21.124 71.5966 20.314 71.5966 19.274C71.5966 18.234 71.2766 17.434 70.6366 16.874C69.9966 16.294 69.0366 16.004 67.7566 16.004H62.6866V22.544ZM85.0846 34.424C82.5446 34.424 80.5546 33.724 79.1146 32.324C77.6746 30.924 76.9546 29.004 76.9546 26.564C76.9546 24.984 77.2646 23.604 77.8846 22.424C78.5046 21.244 79.3646 20.324 80.4646 19.664C81.5846 19.004 82.8846 18.674 84.3646 18.674C85.8246 18.674 87.0446 18.984 88.0246 19.604C89.0046 20.224 89.7446 21.094 90.2446 22.214C90.7646 23.334 91.0246 24.644 91.0246 26.144V27.134H79.9846V25.154H88.3546L87.8446 25.574C87.8446 24.174 87.5446 23.104 86.9446 22.364C86.3646 21.624 85.5146 21.254 84.3946 21.254C83.1546 21.254 82.1946 21.694 81.5146 22.574C80.8546 23.454 80.5246 24.684 80.5246 26.264V26.654C80.5246 28.294 80.9246 29.524 81.7246 30.344C82.5446 31.144 83.6946 31.544 85.1746 31.544C86.0346 31.544 86.8346 31.434 87.5746 31.214C88.3346 30.974 89.0546 30.594 89.7346 30.074L90.8446 32.594C90.1246 33.174 89.2646 33.624 88.2646 33.944C87.2646 34.264 86.2046 34.424 85.0846 34.424ZM100.622 34.424C98.8216 34.424 97.4616 33.954 96.5416 33.014C95.6216 32.074 95.1616 30.664 95.1616 28.784V21.794H92.2516V18.974H95.1616V15.104L98.9116 14.144V18.974H102.962V21.794H98.9116V28.544C98.9116 29.584 99.1116 30.314 99.5116 30.734C99.9116 31.154 100.462 31.364 101.162 31.364C101.542 31.364 101.862 31.334 102.122 31.274C102.402 31.214 102.672 31.134 102.932 31.034V34.004C102.592 34.144 102.212 34.244 101.792 34.304C101.392 34.384 101.002 34.424 100.622 34.424ZM105.809 34.124V12.974H109.679V30.854H119.639V34.124H105.809ZM122.296 34.124V18.974H126.046V34.124H122.296ZM122.086 16.124V12.464H126.256V16.124H122.086ZM130.118 34.124V22.754C130.118 22.134 130.098 21.504 130.058 20.864C130.018 20.224 129.958 19.594 129.878 18.974H133.508L133.808 21.974H133.448C133.928 20.914 134.638 20.104 135.578 19.544C136.518 18.964 137.608 18.674 138.848 18.674C140.628 18.674 141.968 19.174 142.868 20.174C143.768 21.174 144.218 22.734 144.218 24.854V34.124H140.468V25.034C140.468 23.814 140.228 22.944 139.748 22.424C139.288 21.884 138.588 21.614 137.648 21.614C136.488 21.614 135.568 21.974 134.888 22.694C134.208 23.414 133.868 24.374 133.868 25.574V34.124H130.118ZM148.194 34.124V12.044H151.944V25.424H152.004L158.154 18.974H162.684L155.034 26.984L155.064 25.484L163.224 34.124H158.574L152.004 27.344H151.944V34.124H148.194Z" fill="#954806"/>
</svg>
