<svg width="384" height="350" viewBox="0 0 384 350" fill="none" xmlns="http://www.w3.org/2000/svg">
<path fill-rule="evenodd" clip-rule="evenodd" d="M273.748 81.9286C273.748 127.177 237.148 163.857 192 163.857C146.852 163.857 110.252 127.177 110.252 81.9286C110.252 36.6807 146.852 0 192 0C237.148 0 273.748 36.6807 273.748 81.9286ZM246.499 81.9286C246.499 112.094 222.099 136.548 192 136.548C161.901 136.548 137.501 112.094 137.501 81.9286C137.501 51.7633 161.901 27.3095 192 27.3095C222.099 27.3095 246.499 51.7633 246.499 81.9286Z" fill="#009FB9"/>
<path d="M192 204.822C103.788 204.822 28.6298 257.098 0 330.337C6.97442 337.278 14.3215 343.843 22.0084 350C43.3275 282.759 110.207 232.131 192 232.131C273.793 232.131 340.673 282.759 361.992 350C369.679 343.843 377.026 337.278 384 330.337C355.37 257.098 280.212 204.822 192 204.822Z" fill="#009FB9"/>
</svg>
